<?xml version="1.0" encoding="UTF-8"?>
<svg version="1.1" xmlns="http://www.w3.org/2000/svg" width="1024" height="1024">
<path d="M0 0 C1.24605143 -0.00320648 2.49210286 -0.00641296 3.77591342 -0.0097166 C7.20551324 -0.01654213 10.63489336 -0.01454336 14.06448046 -0.00866088 C17.80678204 -0.00446316 21.54906441 -0.01190796 25.29136121 -0.01781338 C31.84084796 -0.02655123 38.39030342 -0.02789611 44.93979454 -0.02431011 C54.67961151 -0.01899148 64.41939833 -0.02511011 74.15921202 -0.03339304 C92.56926142 -0.04861937 110.97929706 -0.05033948 129.38935144 -0.04787002 C143.60890976 -0.04603597 157.82846357 -0.0477993 172.04802132 -0.05209446 C174.09235779 -0.05269687 176.13669427 -0.05329806 178.18103074 -0.05389806 C181.26182901 -0.05480534 184.34262728 -0.05571401 187.42342555 -0.05663041 C216.06152484 -0.06505806 244.69962243 -0.06939698 273.33772278 -0.06522369 C274.95656045 -0.06498913 274.95656045 -0.06498913 276.60810192 -0.06474983 C282.07778518 -0.06394407 287.54746842 -0.0630983 293.01715167 -0.06223653 C294.64653437 -0.06197989 294.64653437 -0.06197989 296.30883388 -0.06171808 C298.50550538 -0.06137142 300.70217687 -0.06102289 302.89884837 -0.06067249 C337.07170733 -0.05531644 371.24454049 -0.06324318 405.41739464 -0.08170605 C443.83052411 -0.10243565 482.24363759 -0.11314686 520.65677297 -0.10913056 C524.75506425 -0.10873523 528.85335552 -0.10837368 532.9516468 -0.10803318 C533.96071349 -0.10794245 534.96978018 -0.10785172 536.00942464 -0.10775824 C551.22334929 -0.10659366 566.43725776 -0.11323001 581.65117836 -0.1238451 C598.96103916 -0.13591042 616.2708644 -0.13744077 633.58072574 -0.12505493 C643.25916158 -0.11843905 652.93751231 -0.12002798 662.6159413 -0.13364345 C669.09234848 -0.1419165 675.56869223 -0.13915349 682.04509432 -0.12766818 C685.72751758 -0.12143989 689.40977538 -0.11973724 693.09218879 -0.13153151 C742.29620511 -0.27803261 783.72404367 14.44275388 819.33878136 49.25447559 C838.15454949 68.05987805 851.6807596 92.15656693 859.15128136 117.62947559 C859.50259117 118.81223072 859.50259117 118.81223072 859.86099815 120.01887989 C864.84716349 137.93439184 865.34131204 155.41560974 865.28668402 173.91294083 C865.27899556 177.65690687 865.28888432 181.40083665 865.29641402 185.14479738 C865.3071966 191.69097825 865.30695291 198.23708474 865.29927254 204.78326893 C865.2878824 214.51804038 865.2937484 224.25274959 865.30289746 233.98752068 C865.31866453 251.37833898 865.3173375 268.76912415 865.30866072 286.15994558 C865.30110466 301.37985494 865.29914832 316.59975219 865.30272865 331.81966305 C865.30295781 332.83047421 865.30318696 333.84128537 865.30342306 334.88272717 C865.30435713 338.98627537 865.30531233 343.08982357 865.30630235 347.19337176 C865.3154731 385.66415573 865.30716901 424.13491865 865.29101166 462.60569937 C865.27677663 496.7590625 865.27804855 530.91239206 865.29239464 565.06575489 C865.30847087 603.46608751 865.31482155 641.86640153 865.30555785 680.26673704 C865.30459574 684.36298215 865.30365722 688.45922726 865.30272865 692.55547237 C865.3023728 694.06829454 865.3023728 694.06829454 865.30200977 695.61167876 C865.29860234 710.81857886 865.3025789 726.02546547 865.31016731 741.2323637 C865.31875621 758.53008151 865.31657695 775.82776109 865.30032508 793.12547415 C865.29153676 802.79747308 865.2909114 812.46938917 865.3022636 822.1413859 C865.30901854 828.61208821 865.30475417 835.08272447 865.2917493 841.55341703 C865.28465281 845.23332826 865.2820887 848.9130756 865.29296724 852.59298133 C865.3442355 871.30113003 864.89727324 889.46647244 859.15128136 907.44197559 C858.89524132 908.2652837 858.63920128 909.0885918 858.37540245 909.93684864 C855.79685812 917.9856683 852.58102984 925.65348896 848.90128136 933.25447559 C848.61591515 933.86033497 848.33054893 934.46619434 848.03653526 935.09041309 C830.37472338 972.22703729 796.06237029 1001.64914703 757.52628136 1015.44197559 C741.01943895 1021.1452558 724.41526408 1024.57505987 706.89996243 1024.5117445 C705.65228729 1024.51525057 704.40461215 1024.51875665 703.11912867 1024.52236897 C699.68034267 1024.53174518 696.24166373 1024.52885318 692.80287276 1024.52381342 C689.05227316 1024.52052693 685.3016955 1024.52884577 681.55110306 1024.53563178 C674.98544107 1024.54591004 668.41980856 1024.54877936 661.85413933 1024.54671955 C652.09014292 1024.54366388 642.32617902 1024.55200613 632.56218895 1024.5624688 C614.10585117 1024.58179372 595.64952453 1024.58743648 577.19317783 1024.58858292 C562.93642719 1024.5895027 548.6796809 1024.59362298 534.42293167 1024.59998417 C530.31618419 1024.60177932 526.2094367 1024.60355895 522.10268921 1024.60533392 C521.08167553 1024.60577602 520.06066186 1024.60621812 519.00870837 1024.60667361 C490.29523693 1024.61897939 461.581767 1024.62687502 432.86829281 1024.62598705 C431.78608639 1024.6259559 430.70387998 1024.62592474 429.58887942 1024.62589264 C424.10406817 1024.62572643 418.61925692 1024.62552835 413.13444567 1024.62532322 C412.04518472 1024.62528333 410.95592376 1024.62524344 409.8336549 1024.62520234 C407.63090343 1024.62512147 405.42815196 1024.62503787 403.22540049 1024.62495156 C368.96540695 1024.62372645 334.70545302 1024.63873292 300.44547081 1024.66609669 C261.93454387 1024.69684321 223.42364296 1024.7140276 184.91270298 1024.71217024 C180.8031263 1024.71202099 176.69354962 1024.71192357 172.58397293 1024.71186161 C171.57212829 1024.7118383 170.56028365 1024.71181499 169.51777705 1024.71179098 C153.26096984 1024.71172953 137.00419713 1024.72448095 120.74740016 1024.74172614 C104.39692246 1024.75871146 88.046495 1024.76063382 71.69601334 1024.7475075 C61.99353772 1024.74013745 52.29121515 1024.74371788 42.58875587 1024.76339218 C36.09373793 1024.775445 29.59883011 1024.77274261 23.10381709 1024.75845118 C19.41234887 1024.75073256 15.72117545 1024.74900606 12.02972872 1024.76536588 C-16.2676811 1024.88241153 -42.64614383 1021.25992027 -68.09871864 1008.25447559 C-69.64366005 1007.48877247 -69.64366005 1007.48877247 -71.21981239 1006.70760059 C-85.10159384 999.57131148 -97.44555718 990.67520716 -108.56942177 979.74422169 C-110.06186213 978.29037892 -111.58284223 976.87401319 -113.11434364 975.46150684 C-137.58496206 952.51730518 -153.25381172 919.24789131 -158.09871864 886.25447559 C-158.27075648 885.12308039 -158.44279432 883.99168519 -158.62004542 882.82600528 C-159.31309182 877.19122907 -159.23888556 871.56072488 -159.23014641 865.89125061 C-159.23219904 864.65182265 -159.23425168 863.41239469 -159.23636651 862.13540831 C-159.24104507 858.69647863 -159.24126431 855.25760127 -159.23958892 851.81867229 C-159.23885626 848.07664176 -159.24388445 844.33461818 -159.24816394 840.59259063 C-159.25573616 833.17121551 -159.25793661 825.74984759 -159.25849299 818.32846901 C-159.25940741 809.43861122 -159.26607731 800.54876007 -159.27283982 791.65890514 C-159.28889484 770.1719996 -159.2948027 748.68509476 -159.29958857 727.19818429 C-159.30192518 717.03081268 -159.30552793 706.86344163 -159.30928394 696.69607045 C-159.3221195 661.88371774 -159.33283829 627.07136534 -159.33628654 592.25901031 C-159.33650818 590.07392871 -159.33672996 587.88884711 -159.3369519 585.7037655 C-159.33717254 583.51343883 -159.33739302 581.32311217 -159.33761334 579.1327855 C-159.33805589 574.73869717 -159.33850301 570.34460884 -159.33895302 565.95052052 C-159.33906241 564.86104318 -159.3391718 563.77156584 -159.33928451 562.64907403 C-159.34291419 527.33201027 -159.35883089 492.01496704 -159.38214338 456.69791114 C-159.40675244 419.34824546 -159.4204599 381.99859152 -159.42165446 344.6489175 C-159.42182591 340.54689967 -159.42204134 336.44488186 -159.42228889 332.34286404 C-159.42234466 331.33285092 -159.42240043 330.32283781 -159.42245789 329.28221824 C-159.42360745 313.04407575 -159.43462144 296.80595438 -159.44917595 280.56781901 C-159.46355917 264.23807488 -159.46676765 247.90835774 -159.45873597 231.57860901 C-159.4542882 221.88443886 -159.45810613 212.19035599 -159.47397448 202.49619735 C-159.4837569 196.01036972 -159.48251522 189.52460295 -159.47253825 183.03877582 C-159.46716963 179.3500427 -159.46635968 175.66147664 -159.47904697 171.97275766 C-159.54107461 152.73447558 -158.87227692 134.36380687 -153.03621864 115.87947559 C-152.74021767 114.92887257 -152.44421669 113.97826954 -152.13924599 112.99886036 C-147.05150492 97.33260929 -139.60825081 82.68358885 -130.09871864 69.25447559 C-129.38844521 68.22838184 -128.67817177 67.20228809 -127.94637489 66.14510059 C-106.37484727 36.49807801 -74.51616763 14.69605822 -39.09871864 5.25447559 C-38.11774208 4.97990528 -37.13676552 4.70533497 -36.12606239 4.42244434 C-24.19504123 1.23140706 -12.32715149 -0.04788128 0 0 Z " fill="#141513" transform="translate(159.09871864318848,-0.25447559356689453)"/>
<path d="M0 0 C2.3607826 -0.00533069 4.7215618 -0.01239937 7.08233458 -0.02104706 C12.86781777 -0.03768809 18.65308544 -0.03586118 24.43857937 -0.02603391 C31.37506207 -0.01528955 38.31145513 -0.02784201 45.24792682 -0.04094901 C58.83711965 -0.06583655 72.42624267 -0.0677834 86.01545164 -0.0596749 C97.90842776 -0.05259347 109.80137684 -0.05255306 121.6943531 -0.05953789 C123.29160454 -0.06044923 124.88885599 -0.06135999 126.48610743 -0.06227018 C128.89321227 -0.06365335 131.3003171 -0.06504445 133.70742193 -0.06645631 C156.07605562 -0.07943052 178.44468029 -0.0845595 200.81331539 -0.07292271 C202.07720574 -0.07226575 202.07720574 -0.07226575 203.36662924 -0.07159552 C210.20845318 -0.06798894 217.05027701 -0.06415405 223.89210082 -0.06030459 C250.57968088 -0.04545695 277.26715859 -0.05423912 303.95472717 -0.08226013 C333.96091556 -0.11370558 363.96704337 -0.12865264 393.97324854 -0.11846012 C397.17413714 -0.11742339 400.37502576 -0.11643616 403.57591438 -0.11547661 C404.75806397 -0.11510328 404.75806397 -0.11510328 405.96409537 -0.11472241 C417.84673069 -0.11128624 429.72931241 -0.12057354 441.61193657 -0.13624763 C455.12861173 -0.15403651 468.64515667 -0.15411882 482.16182631 -0.13089598 C489.05584211 -0.11951551 495.94963463 -0.11592963 502.84363937 -0.13519669 C509.15952167 -0.15202846 515.47494573 -0.1456129 521.79079849 -0.1209799 C524.07057599 -0.11610521 526.35039063 -0.11958862 528.63013696 -0.13246734 C545.55919757 -0.22117063 559.49258132 1.40958132 573.70204163 11.5146637 C574.65143616 12.18948792 574.65143616 12.18948792 575.62001038 12.87794495 C584.56469704 19.88757798 591.37473569 31.41173592 593.70204163 42.5146637 C593.95009484 46.21967671 593.9332442 49.92717174 593.95204163 53.6396637 C593.98297913 55.13239807 593.98297913 55.13239807 594.01454163 56.6552887 C594.09018739 71.14145219 588.46971331 82.75864333 578.63954163 93.3271637 C572.7611904 98.9075711 566.35707715 102.79152692 558.70204163 105.5146637 C557.98319668 105.77360066 557.26435173 106.03253763 556.5237236 106.29932117 C545.67592079 109.56985516 534.52679546 108.91143924 523.30848694 108.85523987 C520.90407196 108.85431984 518.49965616 108.85472308 516.09524155 108.85633564 C509.68138016 108.85701034 503.26768815 108.83967715 496.85386658 108.81850433 C490.82587678 108.80136501 484.79792729 108.80061201 478.76991272 108.79847717 C461.16393343 108.7827621 443.55798536 108.74087841 425.95204163 108.7021637 C386.59954163 108.6402887 347.24704163 108.5784137 306.70204163 108.5146637 C306.70204163 227.6446637 306.70204163 346.7746637 306.70204163 469.5146637 C286.90204163 469.5146637 267.10204163 469.5146637 246.70204163 469.5146637 C246.70204163 513.4046637 246.70204163 557.2946637 246.70204163 602.5146637 C266.50204163 602.5146637 286.30204163 602.5146637 306.70204163 602.5146637 C306.79485413 611.0843512 306.79485413 611.0843512 306.88954163 619.8271637 C306.91685364 621.60647278 306.94416565 623.38578186 306.9723053 625.2190094 C307.11177013 640.67747815 304.32285969 652.54241746 293.63954163 664.2646637 C283.35164203 674.1494599 271.29383334 675.99381057 257.74501038 675.7881012 C245.19699202 675.32053069 236.72499202 668.99701836 228.38954163 660.0771637 C220.57277107 650.9239274 218.39160693 641.68285062 218.46153259 629.87820435 C218.45896932 628.28889812 218.45896932 628.28889812 218.45635426 626.6674847 C218.45306486 623.123718 218.46405419 619.58014142 218.47499084 616.03639221 C218.47555508 613.49352015 218.47523817 610.95064775 218.47410583 608.40777588 C218.47365067 602.93649447 218.47931674 597.46527407 218.49058151 591.9940052 C218.50685769 584.08354929 218.51204668 576.17311643 218.5145575 568.26264559 C218.51893128 555.42744908 218.53223178 542.59227803 218.55116272 529.75709534 C218.56952972 517.29127632 218.58368221 504.82546422 218.59217834 492.3596344 C218.59270379 491.5908286 218.59322924 490.82202281 218.59377061 490.02991987 C218.59638074 486.17292397 218.59890815 482.31592802 218.60139441 478.45893204 C218.62211705 446.47749075 218.65733395 414.49608076 218.70204163 382.5146637 C224.61760486 380.08952596 230.53376566 377.66585017 236.45030212 375.24308777 C238.45381022 374.42248424 240.45719208 373.60157242 242.46043396 372.78031921 C294.33562193 351.5146637 294.33562193 351.5146637 297.70204163 351.5146637 C297.70204163 313.8946637 297.70204163 276.2746637 297.70204163 237.5146637 C293.24704163 236.0296637 293.24704163 236.0296637 288.70204163 234.5146637 C286.21106492 233.56633242 283.72835319 232.59599737 281.25453186 231.60377502 C280.55959405 231.32587222 279.86465624 231.04796942 279.14865971 230.76164532 C276.93500856 229.87574275 274.72279495 228.98631453 272.51063538 228.09669495 C271.12991114 227.54352131 269.74909265 226.9905829 268.36817932 226.43788147 C263.29082801 224.40381573 258.21529078 222.36522413 253.13954163 220.3271637 C241.77516663 215.7690387 230.41079163 211.2109137 218.70204163 206.5146637 C218.70204163 174.1746637 218.70204163 141.8346637 218.70204163 108.5146637 C211.4392218 108.53561096 204.17640198 108.55655823 196.6934967 108.57814026 C173.42161151 108.64241991 150.14973147 108.68686768 126.8777815 108.71892501 C123.25938686 108.72392749 119.6409925 108.72910481 116.02259827 108.73439026 C114.94212016 108.73596412 114.94212016 108.73596412 113.83981421 108.73756978 C102.19587371 108.75494715 90.55201268 108.78647002 78.90811924 108.82327488 C66.94914019 108.86075877 54.99020259 108.88291524 43.03116721 108.89101768 C36.31867767 108.89600059 29.60637908 108.90842741 22.89394569 108.93758392 C16.56976071 108.96483022 10.24582891 108.97308996 3.92159081 108.96709442 C1.60656735 108.96819053 -0.70846499 108.97608905 -3.0234375 108.9914856 C-22.21272974 109.1127992 -38.45048222 107.21152463 -53.04795837 93.3896637 C-63.81830987 82.05002219 -68.90079896 69.74541111 -68.79795837 54.2021637 C-68.79223816 53.19250549 -68.78651794 52.18284729 -68.78062439 51.14259338 C-68.58557428 42.97019089 -67.30183494 36.7419143 -63.29795837 29.5146637 C-62.51872009 28.0586676 -62.51872009 28.0586676 -61.72373962 26.57325745 C-54.08809538 13.49120962 -42.12498732 5.30864116 -27.65612876 1.34271252 C-18.63655274 -0.61308454 -9.17442691 -0.03625075 0 0 Z " fill="#FEFEFE" transform="translate(249.29795837402344,174.48533630371094)"/>
<path d="M0 0 C5.86817508 1.95605836 11.59073119 3.95365747 17.30737305 6.27001953 C18.09306325 6.58584142 18.87875345 6.9016633 19.68825245 7.22705555 C22.29709699 8.27645462 24.90439611 9.32963844 27.51171875 10.3828125 C29.39488199 11.14115547 31.2781448 11.89925122 33.16149902 12.65711975 C37.21264727 14.28789145 41.26312379 15.92031644 45.31307983 17.55404663 C51.7542863 20.15236465 58.19696081 22.74702807 64.63989258 25.34106445 C71.41130904 28.06755974 78.18261714 30.79432275 84.95341492 33.52235413 C108.15087431 42.86883922 131.35537268 52.19778488 154.5609436 61.52410889 C159.994401 63.70786608 165.42764165 65.89216193 170.86079502 68.07667542 C193.23239581 77.07158187 215.60890835 86.05370489 238 95 C238 116.12 238 137.24 238 159 C232.01359375 161.39185547 232.01359375 161.39185547 225.90625 163.83203125 C206.57998543 171.55973546 187.26934996 179.32631616 167.95794678 187.09106445 C161.36560101 189.74165676 154.77289802 192.39135988 148.18017578 195.04101562 C126.79552102 203.63604381 105.41240644 212.23486217 84.03399658 220.84541321 C75.73587703 224.18760199 67.43708216 227.52811242 59.13812637 230.86822414 C52.33470621 233.60660835 45.53222385 236.34730609 38.73039818 239.08964825 C34.51543173 240.78839672 30.29959748 242.48498283 26.08351517 244.1809597 C24.12464123 244.96946815 22.16613491 245.75889055 20.20801926 246.54928017 C17.53921709 247.62640467 14.86914587 248.70032007 12.19873047 249.7734375 C11.02965778 250.24663689 11.02965778 250.24663689 9.83696747 250.72939587 C6.56202144 252.04197447 3.43106937 253.14223266 0 254 C0 231.56 0 209.12 0 186 C21.85641702 177.6267728 43.73124762 169.30784563 65.63814926 161.06789398 C71.62769516 158.81489337 77.61678737 156.56068672 83.60580635 154.30628586 C85.09797285 153.74460399 86.5901539 153.18296077 88.08234978 152.62135696 C97.85972778 148.94125789 107.63197621 145.24805417 117.3984375 141.5390625 C119.52367608 140.73273275 121.64892001 139.92641707 123.77416992 139.12011719 C127.62723328 137.65810939 131.4786996 136.19199339 135.3293457 134.72363281 C137.01507528 134.08382248 138.70086226 133.44416335 140.38671875 132.8046875 C141.51894363 132.37079208 141.51894363 132.37079208 142.67404175 131.9281311 C147.77255889 130 147.77255889 130 150 130 C149.67 128.02 149.34 126.04 149 124 C147.88878784 123.58995728 147.88878784 123.58995728 146.75512695 123.17163086 C117.43275623 112.3398187 88.19328622 101.28796181 58.94955444 90.24617195 C50.58387921 87.08758433 42.21738212 83.93117504 33.85093689 80.77462769 C22.56697288 76.5172614 11.28352836 72.25852172 0 68 C0 45.56 0 23.12 0 0 Z " fill="#F39044" transform="translate(272,342)"/>
<path d="M0 0 C81.84 0 163.68 0 248 0 C248 19.47 248 38.94 248 59 C166.16 59 84.32 59 0 59 C0 39.53 0 20.06 0 0 Z " fill="#F39044" transform="translate(533,681)"/>
</svg>
